<svg id="_0374_accountant" xmlns="http://www.w3.org/2000/svg" xmlns:xlink="http://www.w3.org/1999/xlink" viewBox="0 0 500 500" data-imageid="accountant-96" imageName="Accountant" class="illustrations_image" style="width: 144px;"><defs><style>.cls-1_accountant-96{fill:url(#linear-gradient);}.cls-1_accountant-96,.cls-2_accountant-96,.cls-3_accountant-96,.cls-4_accountant-96,.cls-5_accountant-96,.cls-6_accountant-96,.cls-7_accountant-96,.cls-8_accountant-96,.cls-9_accountant-96,.cls-10_accountant-96,.cls-11_accountant-96,.cls-12_accountant-96,.cls-13_accountant-96,.cls-14_accountant-96,.cls-15_accountant-96,.cls-16_accountant-96,.cls-17_accountant-96,.cls-18_accountant-96,.cls-19_accountant-96,.cls-20_accountant-96,.cls-21_accountant-96,.cls-22_accountant-96,.cls-23_accountant-96,.cls-24_accountant-96,.cls-25_accountant-96,.cls-26_accountant-96,.cls-27_accountant-96,.cls-28_accountant-96,.cls-29_accountant-96,.cls-30_accountant-96,.cls-31_accountant-96,.cls-32_accountant-96,.cls-33_accountant-96,.cls-34_accountant-96,.cls-35_accountant-96,.cls-36_accountant-96,.cls-37_accountant-96,.cls-38_accountant-96,.cls-39_accountant-96,.cls-40_accountant-96,.cls-41_accountant-96,.cls-42_accountant-96,.cls-43_accountant-96,.cls-44_accountant-96{stroke-width:0px;}.cls-2_accountant-96{isolation:isolate;opacity:.18;}.cls-2_accountant-96,.cls-44_accountant-96{fill:#68e1fd;}.cls-3_accountant-96{fill:url(#linear-gradient-38-accountant-96);}.cls-4_accountant-96{fill:url(#linear-gradient-33-accountant-96);}.cls-5_accountant-96{fill:url(#linear-gradient-29-accountant-96);}.cls-6_accountant-96{fill:url(#linear-gradient-32-accountant-96);}.cls-7_accountant-96{fill:url(#linear-gradient-30-accountant-96);}.cls-8_accountant-96{fill:url(#linear-gradient-31-accountant-96);}.cls-9_accountant-96{fill:url(#linear-gradient-36-accountant-96);}.cls-10_accountant-96{fill:url(#linear-gradient-34-accountant-96);}.cls-11_accountant-96{fill:url(#linear-gradient-37-accountant-96);}.cls-12_accountant-96{fill:url(#linear-gradient-35-accountant-96);}.cls-13_accountant-96{fill:url(#linear-gradient-28-accountant-96);}.cls-14_accountant-96{fill:url(#linear-gradient-25-accountant-96);}.cls-15_accountant-96{fill:url(#linear-gradient-11-accountant-96);}.cls-16_accountant-96{fill:url(#linear-gradient-12-accountant-96);}.cls-17_accountant-96{fill:url(#linear-gradient-13-accountant-96);}.cls-18_accountant-96{fill:url(#linear-gradient-10-accountant-96);}.cls-19_accountant-96{fill:url(#linear-gradient-17-accountant-96);}.cls-20_accountant-96{fill:url(#linear-gradient-16-accountant-96);}.cls-21_accountant-96{fill:url(#linear-gradient-19-accountant-96);}.cls-22_accountant-96{fill:url(#linear-gradient-15-accountant-96);}.cls-23_accountant-96{fill:url(#linear-gradient-23-accountant-96);}.cls-24_accountant-96{fill:url(#linear-gradient-21-accountant-96);}.cls-25_accountant-96{fill:url(#linear-gradient-18-accountant-96);}.cls-26_accountant-96{fill:url(#linear-gradient-14-accountant-96);}.cls-27_accountant-96{fill:url(#linear-gradient-22-accountant-96);}.cls-28_accountant-96{fill:url(#linear-gradient-20-accountant-96);}.cls-29_accountant-96{fill:url(#linear-gradient-27-accountant-96);}.cls-30_accountant-96{fill:url(#linear-gradient-24-accountant-96);}.cls-31_accountant-96{fill:url(#linear-gradient-26-accountant-96);}.cls-45_accountant-96{opacity:.33;}.cls-32_accountant-96{fill:url(#linear-gradient-4-accountant-96);}.cls-33_accountant-96{fill:url(#linear-gradient-2-accountant-96);}.cls-34_accountant-96{fill:url(#linear-gradient-3-accountant-96);}.cls-35_accountant-96{fill:url(#linear-gradient-8-accountant-96);}.cls-36_accountant-96{fill:url(#linear-gradient-9-accountant-96);}.cls-37_accountant-96{fill:url(#linear-gradient-7-accountant-96);}.cls-38_accountant-96{fill:url(#linear-gradient-5-accountant-96);}.cls-39_accountant-96{fill:url(#linear-gradient-6-accountant-96);}.cls-40_accountant-96{fill:#231f20;}.cls-41_accountant-96{fill:#c14834;}.cls-42_accountant-96{fill:#fff;}.cls-43_accountant-96{fill:#ffb4a3;}</style><linearGradient id="linear-gradient-accountant-96" x1="260.49" y1="307.48" x2="271.94" y2="454.38" gradientUnits="userSpaceOnUse"><stop offset="0" stop-color="#000"/><stop offset="1" stop-color="#000" stop-opacity="0"/></linearGradient><linearGradient id="linear-gradient-2-accountant-96" x1="788.41" y1="2987.1" x2="772.07" y2="3030.65" gradientTransform="translate(-471 3367.76) scale(1 -1)" xlink:href="#linear-gradient-accountant-96"/><linearGradient id="linear-gradient-3-accountant-96" x1="767.43" y1="3026.74" x2="881.15" y2="3026.74" gradientTransform="translate(-471 3367.76) scale(1 -1)" xlink:href="#linear-gradient-accountant-96"/><linearGradient id="linear-gradient-4-accountant-96" x1="147.23" y1="374.78" x2="221.51" y2="278.02" xlink:href="#linear-gradient-accountant-96"/><linearGradient id="linear-gradient-5-accountant-96" x1="229.67" y1="301.48" x2="239.01" y2="335.58" xlink:href="#linear-gradient-accountant-96"/><linearGradient id="linear-gradient-6-accountant-96" x1="164.64" y1="415.42" x2="162.69" y2="278.58" xlink:href="#linear-gradient-accountant-96"/><linearGradient id="linear-gradient-7-accountant-96" x1="177.52" y1="226.76" x2="153.63" y2="331.88" xlink:href="#linear-gradient-accountant-96"/><linearGradient id="linear-gradient-8-accountant-96" x1="227.41" y1="345.04" x2="115.77" y2="286.4" xlink:href="#linear-gradient-accountant-96"/><linearGradient id="linear-gradient-9-accountant-96" x1="158.57" y1="210.61" x2="158.13" y2="277.5" xlink:href="#linear-gradient-accountant-96"/><linearGradient id="linear-gradient-10-accountant-96" x1="191.22" y1="210.82" x2="190.79" y2="277.72" xlink:href="#linear-gradient-accountant-96"/><linearGradient id="linear-gradient-11-accountant-96" x1="667.19" y1="3109.17" x2="638.22" y2="3199.66" gradientTransform="translate(-478.88 3366.58) scale(1 -1)" xlink:href="#linear-gradient-accountant-96"/><linearGradient id="linear-gradient-12-accountant-96" x1="663.76" y1="3154.05" x2="642.23" y2="3121.31" gradientTransform="translate(-478.88 3366.58) scale(1 -1)" xlink:href="#linear-gradient-accountant-96"/><linearGradient id="linear-gradient-13-accountant-96" x1="77.03" y1="327.88" x2="134.05" y2="334.07" xlink:href="#linear-gradient-accountant-96"/><linearGradient id="linear-gradient-14-accountant-96" x1="121.15" y1="463.75" x2="87.92" y2="317.14" xlink:href="#linear-gradient-accountant-96"/><linearGradient id="linear-gradient-15-accountant-96" x1="121.05" y1="463.77" x2="87.82" y2="317.16" gradientTransform="translate(15.42 -3.78) rotate(2.09)" xlink:href="#linear-gradient-accountant-96"/><linearGradient id="linear-gradient-16-accountant-96" x1="122.05" y1="463.54" x2="88.82" y2="316.93" gradientTransform="translate(15.25 -3.78) rotate(2.09)" xlink:href="#linear-gradient-accountant-96"/><linearGradient id="linear-gradient-17-accountant-96" x1="121.2" y1="463.73" x2="87.97" y2="317.13" gradientTransform="translate(16.33 -4) rotate(2.26)" xlink:href="#linear-gradient-accountant-96"/><linearGradient id="linear-gradient-18-accountant-96" x1="121.4" y1="463.69" x2="88.17" y2="317.08" gradientTransform="translate(12.27 -3.08) rotate(1.72)" xlink:href="#linear-gradient-accountant-96"/><linearGradient id="linear-gradient-19-accountant-96" x1="121.95" y1="463.56" x2="88.72" y2="316.96" gradientTransform="translate(21.28 -5.12) rotate(3.02)" xlink:href="#linear-gradient-accountant-96"/><linearGradient id="linear-gradient-20-accountant-96" x1="122.32" y1="463.48" x2="89.09" y2="316.87" gradientTransform="translate(17.28 -4.27) rotate(2.48)" xlink:href="#linear-gradient-accountant-96"/><linearGradient id="linear-gradient-21-accountant-96" x1="122.73" y1="463.39" x2="89.5" y2="316.78" gradientTransform="translate(15.6 -3.91) rotate(2.26)" xlink:href="#linear-gradient-accountant-96"/><linearGradient id="linear-gradient-22-accountant-96" x1="122.87" y1="463.36" x2="89.64" y2="316.75" gradientTransform="translate(14.69 -3.71) rotate(2.15)" xlink:href="#linear-gradient-accountant-96"/><linearGradient id="linear-gradient-23-accountant-96" x1="122.86" y1="463.36" x2="89.63" y2="316.75" gradientTransform="translate(10.16 -2.63) rotate(1.51)" xlink:href="#linear-gradient-accountant-96"/><linearGradient id="linear-gradient-24-accountant-96" x1="123.13" y1="463.3" x2="89.9" y2="316.69" gradientTransform="translate(5.74 -1.53) rotate(.86)" xlink:href="#linear-gradient-accountant-96"/><linearGradient id="linear-gradient-25-accountant-96" x1="102.31" y1="468.02" x2="69.08" y2="321.41" gradientTransform="translate(24.62 -4.57) rotate(3.49)" xlink:href="#linear-gradient-accountant-96"/><linearGradient id="linear-gradient-26-accountant-96" x1="118.18" y1="464.42" x2="84.95" y2="317.81" gradientTransform="translate(58.13 -10.7) rotate(8.17)" xlink:href="#linear-gradient-accountant-96"/><linearGradient id="linear-gradient-27-accountant-96" x1="137.44" y1="460.05" x2="104.21" y2="313.45" gradientTransform="translate(111.55 -18.57) rotate(15.47)" xlink:href="#linear-gradient-accountant-96"/><linearGradient id="linear-gradient-28-accountant-96" x1="648.07" y1="3009.7" x2="646.85" y2="2963.04" gradientTransform="translate(-471 3367.76) scale(1 -1)" xlink:href="#linear-gradient-accountant-96"/><linearGradient id="linear-gradient-29-accountant-96" x1="633.17" y1="2990.88" x2="633.51" y2="2995.2" gradientTransform="translate(-471 3367.76) scale(1 -1)" xlink:href="#linear-gradient-accountant-96"/><linearGradient id="linear-gradient-30-accountant-96" x1="629.04" y1="2994.34" x2="629.37" y2="2998.65" gradientTransform="translate(-471 3367.76) scale(1 -1)" xlink:href="#linear-gradient-accountant-96"/><linearGradient id="linear-gradient-31-accountant-96" x1="639.81" y1="2992.04" x2="640.15" y2="2996.35" gradientTransform="translate(-471 3367.76) scale(1 -1)" xlink:href="#linear-gradient-accountant-96"/><linearGradient id="linear-gradient-32-accountant-96" x1="635.68" y1="2995.49" x2="636.02" y2="2999.82" gradientTransform="translate(-471 3367.76) scale(1 -1)" xlink:href="#linear-gradient-accountant-96"/><linearGradient id="linear-gradient-33-accountant-96" x1="646.46" y1="2993.19" x2="646.79" y2="2997.5" gradientTransform="translate(-471 3367.76) scale(1 -1)" xlink:href="#linear-gradient-accountant-96"/><linearGradient id="linear-gradient-34-accountant-96" x1="642.33" y1="2996.65" x2="642.67" y2="3000.97" gradientTransform="translate(-471 3367.76) scale(1 -1)" xlink:href="#linear-gradient-accountant-96"/><linearGradient id="linear-gradient-35-accountant-96" x1="653.1" y1="2994.34" x2="653.44" y2="2998.65" gradientTransform="translate(-471 3367.76) scale(1 -1)" xlink:href="#linear-gradient-accountant-96"/><linearGradient id="linear-gradient-36-accountant-96" x1="648.98" y1="2997.81" x2="649.3" y2="3002.12" gradientTransform="translate(-471 3367.76) scale(1 -1)" xlink:href="#linear-gradient-accountant-96"/><linearGradient id="linear-gradient-37-accountant-96" x1="659.74" y1="2995.49" x2="660.08" y2="2999.82" gradientTransform="translate(-471 3367.76) scale(1 -1)" xlink:href="#linear-gradient-accountant-96"/><linearGradient id="linear-gradient-38-accountant-96" x1="655.62" y1="2998.96" x2="655.95" y2="3003.27" gradientTransform="translate(-471 3367.76) scale(1 -1)" xlink:href="#linear-gradient-accountant-96"/></defs><path id="background_accountant-96" class="cls-2_accountant-96 targetColor" d="M84.39,394.61c-29.6-26.53-46.76-64.22-47.35-103.97-.36-39.24,22.3-71.66,51.18-98.13,20.57-18.93,93.45-172.75,231.81-114.21,45.18,19.12,43.28,87.58,73.41,126.4,9.04,11.67,20.25,21.46,30.71,31.91,18.58,18.51,35.33,39.71,43.74,64.58,8.41,24.87,7.43,53.92-7.34,75.59-12.59,18.48-33.42,29.58-54.35,37.4-53.54,19.98-111.88,22.82-168.98,21.02-52.1-1.64-113.77-6-152.84-40.59Z" style="fill: rgb(104, 225, 253);"/><g id="table_accountant-96"><polygon class="cls-40_accountant-96" points="61.93 455.68 482.15 455.68 392.9 344.76 63.86 344.76 61.93 455.68"/><path class="cls-1_accountant-96" d="M482.15,455.68H61.93l1.93-110.91h76.23c.81.5,1.7.87,2.62,1.11,13.18,4.4,27.49,3.2,41.32,1.88,2.75-.26,5.56-.57,7.91-1.96,1.94-1.14,10.52,1.61,10.29-.65-.01-.13-.02-.25-.03-.38h190.7l89.25,110.91Z"/></g><g id="laptop_accountant-96"><polygon class="cls-44_accountant-96 targetColor" points="235.87 367.75 296.43 391.15 388.12 372.81 328.84 349.61 235.87 363.71 235.87 367.75" style="fill: rgb(104, 225, 253);"/><polygon class="cls-44_accountant-96 targetColor" points="235.87 363.71 296.43 387.12 388.12 368.78 328.84 345.57 235.87 363.71" style="fill: rgb(104, 225, 253);"/><polygon class="cls-33_accountant-96" points="235.87 363.71 296.43 387.12 388.12 368.78 328.84 345.57 235.87 363.71"/><polygon class="cls-44_accountant-96 targetColor" points="296.43 391.16 388.12 372.81 410.15 290.88 318.47 309.22 296.43 391.16" style="fill: rgb(104, 225, 253);"/><polygon class="cls-34_accountant-96" points="296.43 391.16 388.12 372.81 410.15 290.88 318.47 309.22 296.43 391.16"/><polygon class="cls-44_accountant-96 targetColor" points="298.93 390.74 390.62 372.39 412.64 290.46 320.96 308.8 298.93 390.74" style="fill: rgb(104, 225, 253);"/></g><g id="character_accountant-96"><path class="cls-44_accountant-96 targetColor" d="M245.58,319.01c-.11.49-.33.95-.64,1.34-4.7,6.87-9.72,13.49-15.07,19.87-.18.25-.42.45-.7.58-.58.09-1.16-.11-1.55-.55-.27-.23-.53-.44-.79-.69-6.87-5.96-11.29-14.28-15.56-22.36-1.86-3.52-3.7-7.05-5.57-10.56-1.66-2.94-3.07-6.02-4.22-9.19-1.68-5.05-2.06-10.41-2.42-15.72-.75-10.71-3.86-22.19-7.82-32.69-1.05-2.81-2.17-5.55-3.32-8.17,8.67,1.32,17.26,3.13,25.73,5.42,1.42.31,2.79.84,4.04,1.58,2.56,1.69,3.75,4.82,4.65,7.77,1.6,5.24,2.81,10.57,3.9,15.95,3.15,15.9,8.67,31.99,18.41,45.18.58.61.91,1.41.93,2.25Z" style="fill: rgb(104, 225, 253);"/><path class="cls-32_accountant-96" d="M237.08,325.06c-.1.49-.32.95-.63,1.34-3.07,4.52-6.29,8.9-9.65,13.15-6.87-5.96-11.29-14.28-15.56-22.36-1.86-3.52-3.7-7.05-5.57-10.56-1.66-2.94-3.07-6.02-4.22-9.19-1.68-5.05-2.06-10.41-2.42-15.72-.75-10.71-3.86-22.19-7.82-32.69,4.98,1.04,10.02,2.26,13.94,3.31,1.42.31,2.78.85,4.03,1.58,2.58,1.71,3.77,4.82,4.68,7.77,1.56,5.25,2.85,10.57,3.87,15.95,3.17,15.91,8.7,32,18.42,45.18.58.61.91,1.41.93,2.25Z"/><path class="cls-44_accountant-96 targetColor" d="M245.97,316.78c-1.81-.91-3.95-.89-5.96-.66-4.06.47-8.02,1.73-11.6,3.69-.6.33-1.2.68-1.68,1.17-.62.62-1.02,1.42-1.4,2.21-1.34,2.84-2.42,5.92-2.21,9.06s1.97,6.33,4.91,7.45c.46.18.97.3,1.46.22.52-.08.98-.39,1.41-.7,3.29-2.4,5.81-5.78,9.28-7.91,2.18-1.34,4.66-2.13,6.81-3.51,1.83-1.18,4.19-3.36,3.5-5.75-.57-1.98-2.7-4.36-4.52-5.27Z" style="fill: rgb(104, 225, 253);"/><path class="cls-38_accountant-96" d="M245.97,316.78c-1.81-.91-3.95-.89-5.96-.66-4.06.47-8.02,1.73-11.6,3.69-.6.33-1.2.68-1.68,1.17-.62.62-1.02,1.42-1.4,2.21-1.34,2.84-2.42,5.92-2.21,9.06s1.97,6.33,4.91,7.45c.46.18.97.3,1.46.22.52-.08.98-.39,1.41-.7,3.29-2.4,5.81-5.78,9.28-7.91,2.18-1.34,4.66-2.13,6.81-3.51,1.83-1.18,4.19-3.36,3.5-5.75-.57-1.98-2.7-4.36-4.52-5.27Z"/><path class="cls-44_accountant-96 targetColor" d="M211.77,312.5c-1,10.79-10.87,17.38-9.57,32.27h-62.11c-.2-.11-.39-.24-.57-.37-.05-.03-.1-.06-.14-.1-.19-.14-.38-.29-.56-.44-1.04-1.16-1.81-2.54-2.26-4.03-2.49-6.81-4.42-13.81-5.75-20.94-1.19-6.49-1.9-13.07-3.17-19.55-1.37-6.99-3.37-13.84-6-20.47-1.51-3.81-3.25-7.61-3.78-11.69-.96-7.23-7.91-18.18-1.99-22.51,2.42-1.78,25.6-4.23,29.37-5.9,1.92-.89,3.9-1.64,5.92-2.26,4.05-1.03,8.24-1.45,12.42-1.23,3.95-.02,7.89.36,11.77,1.13,3.61.79,6.78,2.83,10.23,3.63,7.06,1.54,13.17,5.9,16.94,12.05,3.99,6.42,5.65,14.02,6.48,21.53.82,7.51.73,15.11,1.59,22.59.61,5.42,1.69,10.85,1.18,16.29Z" style="fill: rgb(104, 225, 253);"/><path class="cls-39_accountant-96" d="M211.77,312.5c-1,10.79-10.87,17.38-9.57,32.27h-62.11c-.2-.11-.39-.24-.57-.37-.05-.03-.1-.06-.14-.1-.19-.14-.38-.29-.56-.44-1.04-1.16-1.81-2.54-2.26-4.03-2.49-6.81-4.42-13.81-5.75-20.94-1.19-6.49-1.9-13.07-3.17-19.55-1.37-6.99-3.37-13.84-6-20.47-1.51-3.81-3.25-7.61-3.78-11.69-.96-7.23-7.91-18.18-1.99-22.51,2.42-1.78,25.6-4.23,29.37-5.9,1.92-.89,3.9-1.64,5.92-2.26,4.05-1.03,8.24-1.45,12.42-1.23,3.95-.02,7.89.36,11.77,1.13,3.61.79,6.78,2.83,10.23,3.63,7.06,1.54,13.17,5.9,16.94,12.05,3.99,6.42,5.65,14.02,6.48,21.53.82,7.51.73,15.11,1.59,22.59.61,5.42,1.69,10.85,1.18,16.29Z"/><path class="cls-37_accountant-96" d="M140.01,270.05v3.7l9.76,5.69-4.05,14.19s18.41,17.1,21.34,21.01c2.93,3.91,9.35,28.99,8.99,30.13s2.15.8,2.15.8l-.36-16.29-21.63-59.23h-16.19Z"/><path class="cls-44_accountant-96 targetColor" d="M131.79,280.72c-.1,2.23-.48,4.44-1.13,6.57-.88,2.7-2.41,5.14-3.39,7.79-1.36,3.45-1.87,7.18-1.47,10.87.28,1.52.38,3.07.28,4.61-.15,1.13-.56,2.16-.81,3.25-.82,3.75.45,7.6,1.72,11.23-3.42,1.07-6.71,2.49-9.84,4.24l-.85.53c-3.38,2.06-5.87,5.3-7.01,9.09-.33,1.32-.69,2.97-2.01,3.26-.63.09-1.27-.07-1.78-.44-2.26-1.49-2.73-4.52-2.96-7.23-.78-9.36-5.08-62.01,6.78-82.51,1.36-2.35,4.22-8.92,10.58-8.57,4.94.27,7.97,3.51,9.8,8.17,3.15,8.11,2.67,20.52,2.09,29.14Z" style="fill: rgb(104, 225, 253);"/><path class="cls-35_accountant-96" d="M131.79,280.72c-.1,2.23-.48,4.44-1.13,6.57-.88,2.7-2.41,5.14-3.39,7.79-1.36,3.45-1.87,7.18-1.47,10.87.28,1.52.38,3.07.28,4.61-.15,1.13-.56,2.16-.81,3.25-.82,3.75.45,7.6,1.72,11.23-3.42,1.07-6.71,2.49-9.84,4.24-1.13-19.28-1.67-54.91,7.6-70.93.87-1.5,2.35-4.72,4.96-6.78,3.14,8.12,2.65,20.53,2.08,29.15Z"/><path class="cls-42_accountant-96" d="M154.37,236.27c.32,2.32.5,4.66.54,7,.99,21.18,8.15,41.6,17.05,60.83,1.66,3.24,2.97,6.65,3.91,10.17.48,2.45.75,4.94.82,7.43l.87,14.93c-.46-7.47.95-14.94,4.09-21.74,2.6-5.65,6.34-10.64,8.49-16.42,3.9-10.44,2.26-22.05.16-32.99-1.47-7.8-4.22-17.22-3.5-25.14.33-.08-18.14-5.9-27.59-6.61-1.99-.24-3.92.77-4.85,2.54Z"/><path class="cls-44_accountant-96 targetColor" d="M148.25,237.78l-9.86,31.53,12.74,5.78-4.33,13.73,17.36,17.78c2.57,2.64,4.59,5.76,5.94,9.18l7.23,18.34s2.33-16.48-7.06-35.76-15.9-62.12-15.9-62.12l-6.12,1.52Z" style="fill: rgb(104, 225, 253);"/><path class="cls-36_accountant-96" d="M148.25,237.78l-9.86,31.53,12.74,5.78-4.33,13.73,17.36,17.78c2.57,2.64,4.59,5.76,5.94,9.18l7.23,18.34s2.33-16.48-7.06-35.76-15.9-62.12-15.9-62.12l-6.12,1.52Z"/><path class="cls-44_accountant-96 targetColor" d="M186.81,240.38l3.39,1.13,13.14,24.95s-5.3,12.29-5.3,11.29,5.78,13.26,5.78,13.26c0,0-9.39,19.75-15.88,22.65-6.49,2.89-10.49,23.62-10.49,23.62,0,0-2.42-18.48,12.72-38.79.88-1.13,2.59-9.89.9-24.35-1.68-14.46-6.44-29.47-4.26-33.76Z" style="fill: rgb(104, 225, 253);"/><path class="cls-18_accountant-96" d="M186.81,240.38l3.39,1.13,13.14,24.95s-5.3,12.29-5.3,11.29,5.78,13.26,5.78,13.26c0,0-9.39,19.75-15.88,22.65-6.49,2.89-10.49,23.62-10.49,23.62,0,0-2.42-18.48,12.72-38.79.88-1.13,2.59-9.89.9-24.35-1.68-14.46-6.44-29.47-4.26-33.76Z"/><path class="cls-41_accountant-96" d="M138.88,216.75c-1.4-9.28-5.07-35.01,8.89-48.27,17.18-16.35,35.24-13.9,47.89-4.52,4.73,3.3,8.43,7.86,10.68,13.17,1.98,4.98,2.44,10.4,2.72,15.71.38,3.62.4,7.27.07,10.89-.5,3.52-1.71,6.9-3.56,9.94-.66,1.07-1.39,2.09-2.02,3.19-1.75,3.18-2.78,6.7-3.03,10.32-.25,3.61-.18,7.24.2,10.84.06.6.43.61-.21.86-.52.08-1.06.04-1.57-.1-.96-.15-1.9-.42-2.85-.55-3.03-.42-6.04-.87-9.04-1.32l-34.05-.44-15.81-2.64c2.04-5.44,2.62-11.33,1.68-17.07Z"/><path class="cls-15_accountant-96" d="M138.88,216.75c-1.4-9.28-5.07-35.01,8.89-48.27,17.18-16.35,35.24-13.9,47.89-4.52,6.57,5.01,11.06,12.28,12.58,20.41.68,3.37,1.03,6.8,1.06,10.23.08,4.24,0,9.4-1.52,13.38-.97,2.64-2.71,4.92-3.93,7.47-1.58,3.7-2.61,7.6-3.08,11.59-.64,3.89-.56,7.86.26,11.71-2.43.3-5.48-.6-7.91-.96-2.02-.28-4.04-.59-6.07-.89l-34.05-.44-15.81-2.64c2.05-5.44,2.63-11.33,1.69-17.07Z"/><path class="cls-43_accountant-96" d="M183.2,250.73c-1.98,3.02-5.2,5.01-8.79,5.43-.26.02-.52.02-.78,0-.91-.01-1.81-.14-2.68-.4-2.38-.74-4.58-1.97-6.46-3.6-4.32-3.54-7.73-8.08-9.93-13.21-.21-.44-.35-.92-.4-1.41,0-.3.87-.88,2.01-2.32,1.83-2.41,3.1-5.2,3.72-8.17.53-2.19-.27-7.6-.35-10.59,0-1.26,0-2.1.38-2.11.89.07,1.74.41,2.44.97,4.06,2.8,7.45,6.46,9.93,10.73l.55,1.01c1.33,2.33,2.31,4.83,2.93,7.44.52,2.77,3.24,1.43,6.42,2.26.43.11.78.85,1.06,1.92.9,3.47,1.06,10.49-.06,12.05Z"/><path class="cls-16_accountant-96" d="M183.25,238.7v1.13c-.11,2.71-.2,5.42-.32,8.13-.06,1.45-.21,3.09-1.38,3.92-2.49,1.67-5.14,3.09-7.91,4.25-.5.26-1.08.34-1.64.23-.36-.18-.71-.39-1.04-.62-4.65-3.39-11.71-14.48-14.77-20.54,1.83-2.41,3.1-5.2,3.72-8.17.53-2.19-.27-7.6-.35-10.59,2.07,1.56,7.82,5.91,12.75,9.59,3.48,2.61,6.55,4.89,7.62,5.65.73.45,1.39,1.01,1.97,1.65,1.05,1.59,1.53,3.49,1.34,5.39Z"/><path class="cls-43_accountant-96" d="M163.79,341.6c1.42.78,2.65,1.87,4.02,2.76.67.43,1.37.8,2.04,1.13,2.15,1.21,4.18,2.62,6.08,4.2.49.32.82.83.93,1.4-.05.56-.39,1.06-.89,1.31-1.34.6-2.88.6-4.22,0-1.32-.6-2.73-1.02-4.17-1.23h-1.72c-.62-.13-1.21-.36-1.74-.7-2.65-1.75-4.85-4.1-6.42-6.86-.56-.71-.9-1.56-1.01-2.46,0-.89.89-.79,1.62-.82,1.91-.07,3.8.37,5.48,1.28Z"/><path class="cls-43_accountant-96" d="M244.1,321.27c10.36,3.88,21.17,6.43,32.17,7.58,4.9.51,9.97.78,14.4,2.96,5.33,2.63,9.04,7.67,12.42,12.54.68.72,1,1.71.86,2.69-.37,1.13-1.86,1.48-3.08,1.43-6.9-.26-12.53-5.82-19.29-7.19-.22,1.24.35,2.48,1.43,3.12,1.07.6,2.09,1.27,3.07,2,.33.3.63.76.46,1.13-.11.22-.29.39-.51.5-1.56.88-3.5.36-5.2-.21-3.61-1.21-7.32-2.67-9.87-5.51-1.13-1.31-2.12-2.94-3.72-3.68-1.39-.52-2.89-.66-4.36-.42-10.05.79-22.88,5.09-32.69,2.73-.65-.12-1.27-.36-1.82-.72-1.24-.91-2.5-4.52-2.42-6.1.07-3.27,1.27-6.41,3.39-8.9,2.19-2.38,11.7-5.04,14.75-3.98"/><path class="cls-43_accountant-96" d="M137.28,334.43c3.39,1.86,6.96,3.74,10.81,4.43,3.12.56,6.35.32,9.42,1.06,5.3,1.29,9.6,5.46,12.01,10.36,2.41,4.9,3.12,10.53,3.19,15.95,0,.47-.12,1.13-.59,1.13-.24,0-.46-.08-.64-.24-3.7-2.64-4.22-8.28-7.91-10.97l2.62,9.48c.24.87.34,2.06-.5,2.39-.34.12-.71.12-1.05,0-2.72-.79-4.52-3.28-6.03-5.65s-2.93-5.04-5.36-6.46c1.37,3.76,2.66,7.53,3.87,11.29-1.26.53-2.68-.3-3.69-1.23-3.03-2.8-4.82-6.65-6.54-10.4.91,3.08,1.38,6.27,1.38,9.48-1.4.17-2.37-1.31-2.99-2.59l-6.68-13.79c-.18-.42-.43-.8-.75-1.13-.39-.3-.84-.51-1.32-.62-8.55-2.62-17.68-1.24-26.24-3.86-1.23-.32-2.41-.81-3.5-1.45-1.92-1.24-2.58-7.49-2.58-9.77.02-2.33,1.2-4.51,3.15-5.79,2.35-1.51,5.23-1.41,7.91-1.51,2.26-.08,6.54-1.05,8.52.14,5.27,3.16,8.1,6.86,13.5,9.76Z"/><path class="cls-44_accountant-96 targetColor" d="M128.36,325.23c-.43-1.01-1.04-1.93-1.82-2.7-.56-.73-1.26-1.33-2.06-1.78-.99-.38-2.06-.53-3.12-.43l-11.43.18c-2.26,0-4.71.12-6.55,1.48-2.11,1.56-2.85,4.45-2.69,7.07.36,2.61.89,5.2,1.59,7.74.18,1.79.71,3.52,1.57,5.09,1.01,1.47,3.17,2.36,4.62,1.32-.76-3.37-.84-6.85-.24-10.24.25-1.77,1.3-3.33,2.85-4.22.89-.33,1.84-.47,2.79-.42l9.59-.12c2.27-.03,6.16.7,4.89-2.96Z" style="fill: rgb(104, 225, 253);"/><path class="cls-17_accountant-96" d="M128.36,325.23c-.43-1.01-1.04-1.93-1.82-2.7-.56-.73-1.26-1.33-2.06-1.78-.99-.38-2.06-.53-3.12-.43l-11.43.18c-2.26,0-4.71.12-6.55,1.48-2.11,1.56-2.85,4.45-2.69,7.07.36,2.61.89,5.2,1.59,7.74.18,1.79.71,3.52,1.57,5.09,1.01,1.47,3.17,2.36,4.62,1.32-.76-3.37-.84-6.85-.24-10.24.25-1.77,1.3-3.33,2.85-4.22.89-.33,1.84-.47,2.79-.42l9.59-.12c2.27-.03,6.16.7,4.89-2.96Z"/><path class="cls-43_accountant-96" d="M200.53,227.53c-1.35,2.17-2.93,4.18-4.72,6-3.12,3.39-6.36,6.9-10.56,8.82-1.37.67-2.87,1.02-4.39,1.03-2.63-.09-4.98-1.66-6.99-3.39-12.73-10.7-18.31-28.62-15.81-45.08.46-3.98,1.81-7.81,3.95-11.19,3.63-5.25,9.97-8.13,16.31-8.88,4.79-.64,9.66,0,14.12,1.86,4.45,1.89,8.11,5.26,10.36,9.54.95,2.07,1.71,4.22,2.26,6.43,1.15,3.98-2.98,32.25-4.52,34.86Z"/><path class="cls-41_accountant-96" d="M195.8,188.14c-2.9,2.54-6.29,4.46-9.96,5.65-2.37.87-4.8,1.58-7.26,2.11-3.94.85-8.05,1.29-11.59,3.22-4.95,2.69-8.03,7.91-9.85,13.25-1.86-1.51-3.33-3.45-4.28-5.65-.98-2.4-1.5-4.96-1.54-7.54-.23-5.79.95-11.54,3.44-16.77,2.15-4.76,5.73-8.73,10.24-11.35,2.52-1.27,5.21-2.18,7.99-2.68,3.77-.88,7.67-1.12,11.52-.71,5.41.74,10.42,3.27,14.22,7.19,2.1,2.18,2.26,3.39,1.46,6.22-.8,2.71-2.32,5.14-4.39,7.06Z"/></g><g id="paper_accountant-96"><polygon class="cls-42_accountant-96" points="126.82 372.28 149.07 431.42 76.62 434.03 77.03 373.06 126.82 372.28"/><g class="cls-45_accountant-96"><path class="cls-26_accountant-96" d="M83.16,428.45l-2.07-51.6h44.49l16.89,48.71-59.32,2.88ZM82.22,377.93l1.98,49.4,56.81-2.76-16.18-46.64h-42.61Z"/></g><g class="cls-45_accountant-96"><rect class="cls-22_accountant-96" x="83.66" y="421.09" width="55.69" height="1.07" transform="translate(-15.28 4.34) rotate(-2.09)"/></g><g class="cls-45_accountant-96"><rect class="cls-20_accountant-96" x="83.66" y="416.45" width="55.69" height="1.07" transform="translate(-15.11 4.34) rotate(-2.09)"/></g><g class="cls-45_accountant-96"><rect class="cls-19_accountant-96" x="83.28" y="410.91" width="52.14" height="1.04" transform="translate(-16.16 4.64) rotate(-2.26)"/></g><g class="cls-45_accountant-96"><rect class="cls-25_accountant-96" x="83" y="406.04" width="50.89" height="1.04" transform="translate(-12.17 3.44) rotate(-1.72)"/></g><g class="cls-45_accountant-96"><rect class="cls-21_accountant-96" x="82.84" y="401.14" width="50.16" height="1.04" transform="translate(-20.98 6.23) rotate(-3.02)"/></g><g class="cls-45_accountant-96"><rect class="cls-28_accountant-96" x="82.85" y="396.78" width="48.93" height="1.04" transform="translate(-17.08 5.01) rotate(-2.48)"/></g><g class="cls-45_accountant-96"><rect class="cls-24_accountant-96" x="82.86" y="392.56" width="47.87" height="1.04" transform="translate(-15.44 4.52) rotate(-2.26)"/></g><g class="cls-45_accountant-96"><rect class="cls-27_accountant-96" x="82.71" y="388.27" width="46.5" height="1.04" transform="translate(-14.54 4.26) rotate(-2.15)"/></g><g class="cls-45_accountant-96"><rect class="cls-23_accountant-96" x="82.44" y="384.35" width="45.25" height="1.04" transform="translate(-10.09 2.9) rotate(-1.51)"/></g><g class="cls-45_accountant-96"><rect class="cls-30_accountant-96" x="82.16" y="380.13" width="44.46" height="1.04" transform="translate(-5.71 1.61) rotate(-.86)"/></g><g class="cls-45_accountant-96"><rect class="cls-14_accountant-96" x="86.89" y="377.35" width="1.04" height="49.79" transform="translate(-24.3 6.06) rotate(-3.49)"/></g><g class="cls-45_accountant-96"><rect class="cls-31_accountant-96" x="103.44" y="377.04" width="1.04" height="49.28" transform="translate(-56.02 18.85) rotate(-8.17)"/></g><g class="cls-45_accountant-96"><rect class="cls-29_accountant-96" x="123.64" y="376.38" width="1.04" height="50.19" transform="translate(-102.56 47.64) rotate(-15.47)"/></g></g><g id="calculator_accountant-96"><polygon class="cls-44_accountant-96 targetColor" points="149.76 368.2 149.76 371.68 164.54 391.15 203.2 384.41 203.63 376.4 188.35 362.01 149.76 368.2" style="fill: rgb(104, 225, 253);"/><polygon class="cls-13_accountant-96" points="149.76 368.2 149.76 371.68 164.54 391.15 203.2 384.41 203.63 376.4 188.35 362.01 149.76 368.2"/><polygon class="cls-44_accountant-96 targetColor" points="165.34 383.23 203.63 376.4 188.35 362.01 150.73 368.16 165.34 383.23" style="fill: rgb(104, 225, 253);"/><polygon class="cls-42_accountant-96" points="162.51 377.15 165.63 381.03 199.85 374.97 194.57 371.14 162.51 377.15"/><polygon class="cls-5_accountant-96" points="161.18 376.16 157.9 373.17 163.45 372.12 166.89 374.9 161.18 376.16"/><polygon class="cls-7_accountant-96" points="157.05 372.7 153.76 369.7 159.33 368.65 162.75 371.44 157.05 372.7"/><polygon class="cls-8_accountant-96" points="167.82 375 164.54 372.02 170.09 370.97 173.53 373.75 167.82 375"/><polygon class="cls-6_accountant-96" points="163.7 371.54 160.41 368.55 165.97 367.5 169.39 370.28 163.7 371.54"/><polygon class="cls-4_accountant-96" points="174.46 373.85 171.18 370.87 176.75 369.8 180.17 372.59 174.46 373.85"/><polygon class="cls-10_accountant-96" points="170.34 370.39 167.06 367.4 172.61 366.35 176.05 369.13 170.34 370.39"/><polygon class="cls-12_accountant-96" points="181.12 372.7 177.83 369.7 183.39 368.65 186.82 371.44 181.12 372.7"/><polygon class="cls-9_accountant-96" points="176.98 369.23 173.7 366.25 179.26 365.2 182.69 367.98 176.98 369.23"/><polygon class="cls-11_accountant-96" points="187.76 371.54 184.47 368.55 190.03 367.5 193.46 370.28 187.76 371.54"/><polygon class="cls-3_accountant-96" points="183.64 368.08 180.35 365.1 185.91 364.04 189.33 366.82 183.64 368.08"/></g></svg>